# AST/ASF file generated using VICON BodyLanguage
# -----------------------------------------------
:version 1.10
:name VICON
:units
  mass 1.0
  length 0.45
  angle deg
:documentation
   .ast/.asf automatically generated from VICON data using
   VICON BodyBuilder and BodyLanguage model FoxedUp or BRILLIANT.MOD
:root
   order TX TY TZ RX RY RZ
   axis XYZ
   position 0 0 0  
   orientation 0 0 0 
:bonedata
  begin
     id 1 
     name lhipjoint
     direction 0.650112 -0.723553 0.232005 
     length 2.45805 
     axis 0 0 0  XYZ
  end
  begin
     id 2 
     name lfemur
     direction 0.34202 -0.939693 0  
     length 7.00073  
     axis 0 0 20  XYZ
    dof rx ry rz
    limits (-160.0 20.0)
           (-70.0 70.0)
           (-60.0 70.0)
  end
  begin
     id 3 
     name ltibia
     direction 0.34202 -0.939693 0   
     length 7.8748   
     axis 0 0 20   XYZ
    dof rx
    limits (-10.0 170.0)
  end
  begin
     id 4 
     name lfoot
     direction 0.0542825 -0.14914 0.987325   
     length 1.75978   
     axis -90 7.62852e-016 20   XYZ
    dof rx rz
    limits (-45.0 90.0)
           (-70.0 20.0)
  end
  begin
     id 5 
     name ltoes
     direction 1.53509e-011 -4.21906e-011 1   
     length 0.893912   
     axis -90 7.62852e-016 20   XYZ
    dof rx
    limits (-90.0 20.0)
  end
  begin
     id 6 
     name rhipjoint
     direction -0.637897 -0.733345 0.235145   
     length 2.42522  
     axis 0 0 0  XYZ 
  end
  begin
     id 7 
     name rfemur
     direction -0.34202 -0.939693 0   
     length 7.02549   
     axis 0 0 -20   XYZ
    dof rx ry rz
    limits (-160.0 20.0)
           (-70.0 70.0)
           (-70.0 60.0)
  end
  begin
     id 8 
     name rtibia
     direction -0.34202 -0.939693 0   
     length 7.71512   
     axis 0 0 -20   XYZ
    dof rx
    limits (-10.0 170.0)
 end
 begin
     id 9 
     name rfoot
     direction -0.0822618 -0.226012 0.970645   
     length 1.90014  
     axis -90 -7.62852e-016 -20   XYZ
    dof rx rz
    limits (-45.0 90.0)
           (-20.0 70.0)
  end
  begin
     id 10 
     name rtoes
     direction -1.53542e-011 -4.21872e-011 1   
     length 0.957341   
     axis -90 -7.62852e-016 -20   XYZ
    dof rx
    limits (-90.0 20.0)
  end
  begin
     id 11 
     name lowerback
     direction -0.0022947 0.999774 -0.0211557   
     length 1.89909   
     axis 0 0 0   XYZ
    dof rx ry rz
    limits (-20.0 45.0)
           (-30.0 30.0)
           (-30.0 30.0)
  end
  begin
     id 12 
     name upperback
     direction 0.0107737 0.998635 0.0511027   
     length 1.8853   
     axis 0 0 0   XYZ
    dof rx ry rz
    limits (-20.0 45.0)
           (-30.0 30.0)
           (-30.0 30.0)
  end
  begin
     id 13 
     name thorax
     direction 0.011824 0.998136 0.0598754   
     length 1.88911   
     axis 0 0 0   XYZ
    dof rx ry rz
    limits (-20.0 45.0)
           (-30.0 30.0)
           (-30.0 30.0)
  end
  begin
     id 14 
     name lowerneck
     direction -0.0685355 0.990319 0.120714   
     length 1.91222   
     axis 0 0 0   XYZ
    dof rx ry rz
    limits (-20.0 45.0)
           (-30.0 30.0)
           (-30.0 30.0)
  end
  begin
     id 15 
     name upperneck
     direction 0.0886204 0.955665 -0.280805   
     length 1.92526   
     axis 0 0 0   XYZ
    dof rx ry rz
    limits (-20.0 45.0)
           (-30.0 30.0)
           (-30.0 30.0)
  end
  begin
     id 16
     name head
     direction 0.0233423 0.993502 -0.111393  
     length 1.96056  
     axis 0 0 0   XYZ
    dof rx ry rz
    limits (-20.0 45.0)
           (-30.0 30.0)
           (-30.0 30.0)
  end
  begin
     id 17 
     name lclavicle
     direction 0.941873 0.32922 0.0670041  
     length 3.31705  
     axis 0 0 0   XYZ
    dof ry rz
    limits (-20.0 10.0)
           (0.0 20.0)
  end
  begin
     id 18 
     name lhumerus
     direction 1 -4.4898e-011 3.38707e-028   
     length 5.29277   
     axis 180 -30 -90   XYZ
    dof rx ry rz
    limits (-60.0 90.0)
           (-90.0 90.0)
           (-90.0 90.0)
  end
  begin
     id 19
     name lradius
     direction 1 -4.48952e-011 1.63213e-028   
     length 2.85226   
     axis 180 -30 -90   XYZ
    dof rx
    limits (-10.0 170.0)
  end
  begin
     id 20
     name lwrist
     direction 1 -4.49001e-011 1.27856e-027   
     length 1.42613   
     axis -1.61767e-015 90 90   XYZ
    dof ry
    limits (-180.0 0.0)
 end
  begin
     id 21 
     name lhand
     direction 1 -4.48976e-011 2.55931e-027   
     length 0.602097   
     axis -1.63363e-015 90 90   XYZ
    dof rx rz
    limits (-90.0 90.0)
           (-45.0 45.0)
  end
  begin
     id 22 
     name lfingers
     direction 1 -4.48986e-011 5.11684e-027   
     length 0.485426   
     axis -3.26723e-015 90 90   XYZ
    dof rx
    limits (0.0 90.0)
  end
  begin
     id 23
     name lthumb
     direction 0.707107 -6.34915e-011 0.707107   
     length 0.696978   
     axis -90 45 -2.25915e-014   XYZ
    dof rx rz
    limits (-45.0 45.0)
           (-45.0 45.0)
  end
  begin
     id 24 
     name rclavicle
     direction -0.939974 0.327078 0.0973096   
     length 3.10337  
     axis 0 0 0   XYZ 
    dof ry rz
    limits (-10.0 20.0)
           (-20.0 0.0)
  end
  begin
     id 25 
     name rhumerus
     direction -1 -4.48975e-011 1.83745e-027  
     length 5.13304   
     axis 180 30 90   XYZ
    dof rx ry rz
    limits (-90.0 60.0)
           (-90.0 90.0)
           (-90.0 90.0)
  end
  begin
     id 26 
     name rradius
     direction -1 -4.48977e-011 7.1775e-029   
     length 2.74305   
     axis 180 30 90   XYZ
    dof rx
    limits (-10.0 170.0)
  end
  begin
     id 27 
     name rwrist
     direction -1 -4.48977e-011 1.27963e-027   
     length 1.37152   
     axis -1.61767e-015 -90 -90   XYZ
    dof ry
    limits (-180.0 0.0)
  end
  begin
     id 28
     name rhand
     direction -1 -4.4888e-011 2.56782e-027   
     length 0.767976   
     axis -1.63363e-015 -90 -90   XYZ
    dof rx rz
    limits (-90.0 90.0)
           (-45.0 45.0)
  end
  begin
     id 29
     name rfingers
     direction -1 -4.48947e-011 5.12384e-027   
     length 0.619162   
     axis -3.26723e-015 -90 -90   XYZ
    dof rx
    limits (0.0 90.0)
  end
  begin
     id 30
     name rthumb
     direction -0.707107 -6.34857e-011 0.707107   
     length 0.888997   
     axis -90 -45 2.25915e-014   XYZ
    dof rx rz
    limits (-45.0 45.0)
           (-45.0 45.0)
  end
:hierarchy
  begin
    root lhipjoint rhipjoint lowerback
    lhipjoint lfemur
    lfemur ltibia
    ltibia lfoot
    lfoot ltoes
    rhipjoint rfemur
    rfemur rtibia
    rtibia rfoot
    rfoot rtoes
    lowerback upperback
    upperback thorax
    thorax lowerneck lclavicle rclavicle
    lowerneck upperneck
    upperneck head
    lclavicle lhumerus
    lhumerus lradius
    lradius lwrist
    lwrist lhand lthumb
    lhand lfingers
    rclavicle rhumerus
    rhumerus rradius
    rradius rwrist
    rwrist rhand rthumb
    rhand rfingers
  end

#!OML:ASF F:\VICON\USERDATA\INSTALL\rory3\rory3.ASF
:FULLY-SPECIFIED
:DEGREES
453
root 0.365667 16.772 -1.50012 33.6946 -9.88455 3.68955
lowerback 15.8401 1.88544 -4.20456
upperback -2.59621 1.04638 -5.35981
thorax -11.8081 0.544928 -3.80835
lowerneck -7.54021 -10.038 -20.6028
upperneck -8.48564 -11.5878 27.1951
head 2.00932 -5.51632 11.4586
rclavicle -1.31198e-014 2.22639e-014
rhumerus 23.4586 19.9206 -81.5224
rradius 107.248
rwrist 28.7506
rhand 23.1493 6.69474
rfingers 7.12502
rthumb 47.4568 -15.7676
lclavicle -1.31198e-014 2.22639e-014
lhumerus 12.1544 -1.34956 87.4288
lradius 110.908
lwrist -23.968
lhand 23.119 38.1509
lfingers 7.12502
lthumb 47.4288 60.6259
rfemur -59.2861 7.88219 5.07962
rtibia 40.0988
rfoot -16.4942 -6.08212
rtoes -17.6931
lfemur -55.4367 -1.89704 -21.4447
ltibia 38.5484
lfoot -15.6694 5.61845
ltoes -17.5516
454
root 0.371326 16.7623 -1.50155 34.147 -8.88768 2.74178
lowerback 15.4509 1.67421 -3.53047
upperback -2.69578 0.997381 -4.72708
thorax -11.6825 0.505937 -3.45789
lowerneck -7.89936 -9.85213 -20.3458
upperneck -8.0476 -11.3503 27.087
head 2.10744 -5.36797 11.3842
rclavicle -1.27222e-014 1.90833e-014
rhumerus 21.8716 19.9743 -81.2233
rradius 107.755
rwrist 27.9481
rhand 23.3089 6.13116
rfingers 7.12502
rthumb 47.6042 -16.2642
lclavicle -1.27222e-014 1.90833e-014
lhumerus 13.1288 -1.68684 87.8091
lradius 111.44
lwrist -24.3727
lhand 23.7862 37.9861
lfingers 7.12502
lthumb 48.0445 60.1781
rfemur -59.2683 7.30717 6.68332
rtibia 39.7457
rfoot -16.3512 -5.74466
rtoes -19.4566
lfemur -56.316 -2.27581 -19.9504
ltibia 39.3011
lfoot -15.8288 5.94897
ltoes -18.0208
455
root 0.377536 16.75 -1.50914 34.5901 -7.89264 1.95254
lowerback 15.0564 1.48068 -3.00231
upperback -2.77769 0.929657 -4.15783
thorax -11.5379 0.464854 -3.09501
lowerneck -8.25367 -9.70977 -20.0578
upperneck -7.63918 -11.1813 27.2529
head 2.24024 -5.25724 11.3956
rclavicle -1.15295e-014 -1.47101e-014
rhumerus 20.1623 19.6263 -81.2028
rradius 108.219
rwrist 27.1752
rhand 23.3557 5.75278
rfingers 7.12502
rthumb 47.6474 -16.6229
lclavicle -1.15295e-014 -1.47101e-014
lhumerus 14.3732 -2.62455 87.8208
lradius 111.658
lwrist -24.295
lhand 23.7367 37.983
lfingers 7.12502
lthumb 47.9988 60.1964
rfemur -59.2854 6.61934 8.1473
rtibia 39.3631
rfoot -16.2325 -5.29125
rtoes -19.9007
lfemur -57.2554 -2.67293 -18.6226
ltibia 40.0288
lfoot -15.9096 6.21627
ltoes -18.4743
456
root 0.385987 16.7434 -1.51578 34.8209 -6.75053 1.11053
lowerback 14.8233 1.22973 -2.38459
upperback -2.76769 0.799158 -3.51414
thorax -11.386 0.390502 -2.69263
lowerneck -8.51548 -9.55792 -19.7633
upperneck -7.39656 -10.9962 27.5963
head 2.3254 -5.14957 11.4808
rclavicle -2.0276e-014 1.43125e-014
rhumerus 18.4556 19.1339 -81.3567
rradius 108.634
rwrist 26.547
rhand 23.6429 5.41433
rfingers 7.12502
rthumb 47.9124 -16.8393
lclavicle -2.0276e-014 1.43125e-014
lhumerus 15.8065 -3.98896 87.6076
lradius 111.68
lwrist -23.4262
lhand 22.3807 38.406
lfingers 7.12502
lthumb 46.7461 61.1833
rfemur -59.011 5.85984 9.81012
rtibia 38.9115
rfoot -16.1724 -4.74737
rtoes -19.9556
lfemur -57.9269 -3.05429 -17.2411
ltibia 40.677
lfoot -15.9384 6.44717
ltoes -19.5794
457
root 0.394733 16.7437 -1.51807 34.7644 -5.46085 0.254754
lowerback 14.8187 0.920285 -1.77218
upperback -2.66441 0.59104 -2.75
thorax -11.2677 0.283937 -2.14521
lowerneck -8.85607 -9.42473 -19.406
upperneck -7.0712 -10.8472 27.8538
head 2.44288 -5.05173 11.5145
rclavicle -1.07344e-014 3.18055e-014
rhumerus 16.7323 18.6438 -81.4717
rradius 109.024
rwrist 26.0323
rhand 24.2321 5.16471
rfingers 7.12502
rthumb 48.4552 -16.8329
lclavicle -1.07344e-014 3.18055e-014
lhumerus 17.3911 -5.28692 87.3472
lradius 111.706
lwrist -22.6613
lhand 21.5596 38.5274
lfingers 7.12502
lthumb 45.9851 61.6282
rfemur -58.3511 5.07338 11.5718
rtibia 38.369
rfoot -16.1579 -4.24851
rtoes -20.4135
lfemur -58.2319 -3.51346 -15.8048
ltibia 41.1885
lfoot -16.1231 6.50607
ltoes -19.285
458
root 0.396683 16.7496 -1.52424 34.5382 -4.10213 -0.716398
lowerback 15.0485 0.647725 -1.24832
upperback -2.54421 0.425402 -1.82042
thorax -11.2694 0.209056 -1.3855
lowerneck -9.12652 -9.32039 -19.121
upperneck -6.76351 -10.7447 28.0893
head 2.55671 -4.97924 11.5506
rclavicle 1.98785e-015 2.26615e-014
rhumerus 15.0003 18.1068 -81.3847
rradius 109.399
rwrist 25.6881
rhand 24.7135 5.02526
rfingers 7.12502
rthumb 48.898 -16.7574
lclavicle 1.98785e-015 2.26615e-014
lhumerus 18.8781 -6.46949 87.1305
lradius 111.668
lwrist -22.2476
lhand 21.5221 37.9739
lfingers 7.12502
lthumb 45.9503 61.0892
rfemur -57.5069 4.46235 13.3966
rtibia 37.759
rfoot -16.1218 -3.81598
rtoes -20.506
lfemur -58.3175 -3.86249 -14.2605
ltibia 41.5571
lfoot -16.3839 6.30527
ltoes -16.852
459
root 0.394074 16.7604 -1.53466 34.1274 -2.77615 -1.58786
lowerback 15.3891 0.403538 -0.926515
upperback -2.33273 0.266825 -0.832244
thorax -11.234 0.152674 -0.449824
lowerneck -9.15045 -9.23855 -18.9501
upperneck -6.73513 -10.6541 28.3487
head 2.56295 -4.93686 11.6276
rclavicle 1.45113e-014 -4.37326e-015
rhumerus 13.4734 17.4935 -81.1694
rradius 109.536
rwrist 25.8527
rhand 24.5152 5.01563
rfingers 7.12502
rthumb 48.7157 -16.8562
lclavicle 1.45113e-014 -4.37326e-015
lhumerus 20.5674 -7.71072 86.8905
lradius 111.39
lwrist -21.4971
lhand 21.4581 37.3481
lfingers 7.12502
lthumb 45.8909 60.4879
rfemur -56.5033 3.91151 15.0461
rtibia 37.1566
rfoot -16.0785 -3.47465
rtoes -20.8253
lfemur -58.2071 -4.17454 -12.8927
ltibia 41.8008
lfoot -16.3743 6.06287
ltoes -15.1898
460
root 0.393335 16.7716 -1.54552 33.6917 -1.55741 -2.05475
lowerback 15.6764 0.121971 -1.01311
upperback -2.07983 -0.0240337 0.107958
thorax -11.1172 0.056709 0.698877
lowerneck -9.10637 -9.14532 -18.8368
upperneck -6.79535 -10.5354 28.5785
head 2.52638 -4.88773 11.7117
rclavicle -3.18055e-015 3.97569e-016
rhumerus 12.2218 16.8783 -80.9516
rradius 109.539
rwrist 26.1977
rhand 24.4314 5.06654
rfingers 7.12502
rthumb 48.6386 -16.8427
lclavicle -3.18055e-015 3.97569e-016
lhumerus 22.6878 -8.88006 86.4362
lradius 110.926
lwrist -20.4228
lhand 21.4374 37.3014
lfingers 7.12502
lthumb 45.8717 60.4491
rfemur -55.535 3.22536 16.1809
rtibia 36.5936
rfoot -16.062 -3.15471
rtoes -21.0518
lfemur -58.0795 -4.65685 -12.0162
ltibia 41.9757
lfoot -16.2259 6.24709
ltoes -17.3182
461
root 0.393686 16.774 -1.56165 33.4475 -0.322333 -2.46589
lowerback 15.8446 -0.204128 -1.22117
upperback -1.91328 -0.390972 1.11154
thorax -11.0138 -0.0668793 2.00607
lowerneck -8.97365 -9.00616 -18.7302
upperneck -6.8967 -10.3558 28.8061
head 2.44819 -4.81671 11.8088
rclavicle 7.7526e-015 -7.55382e-015
rhumerus 11.3813 16.2214 -80.7312
rradius 109.437
rwrist 26.1841
rhand 25.0596 5.17155
rfingers 7.12502
rthumb 49.2159 -16.4534
lclavicle 7.7526e-015 -7.55382e-015
lhumerus 24.722 -9.88724 85.7487
lradius 110.327
lwrist -19.3964
lhand 21.3626 37.3785
lfingers 7.12502
lthumb 45.8023 60.5549
rfemur -54.8616 2.59185 17.1624
rtibia 36.0801
rfoot -16.0371 -2.93278
rtoes -21.6406
lfemur -58.186 -5.11791 -11.2017
ltibia 42.1374
lfoot -16.1447 6.5507
ltoes -20.2898
462
root 0.388074 16.7736 -1.57842 33.2414 0.970533 -3.30135
lowerback 16.0547 -0.530115 -1.03392
upperback -1.80768 -0.676345 2.15139
thorax -10.9971 -0.174832 3.11368
lowerneck -8.84602 -8.87097 -18.4429
upperneck -6.93394 -10.2085 29.0202
head 2.38418 -4.76325 11.8608
rclavicle 9.93923e-015 -2.127e-014
rhumerus 10.8542 15.5322 -80.6847
rradius 109.179
rwrist 26.2488
rhand 25.6302 5.39222
rfingers 7.12502
rthumb 49.7391 -15.9664
lclavicle 9.93923e-015 -2.127e-014
lhumerus 26.4657 -10.8372 84.7915
lradius 109.563
lwrist -18.509
lhand 21.3092 37.349
lfingers 7.12502
lthumb 45.7527 60.5458
rfemur -54.2642 2.35019 18.4688
rtibia 35.5879
rfoot -15.8857 -3.09408
rtoes -23.4543
lfemur -58.3545 -5.32148 -9.91316
ltibia 42.3337
lfoot -16.2225 6.43594
ltoes -20.5904
463
root 0.378757 16.7767 -1.5952 33.0065 2.23932 -4.16706
lowerback 16.4592 -0.831547 -0.741861
upperback -1.81559 -0.908664 3.1359
thorax -11.2194 -0.260245 4.10556
lowerneck -8.54858 -8.75589 -18.14
upperneck -6.8732 -10.1311 29.2145
head 2.33133 -4.75299 11.8971
rclavicle 5.76476e-015 2.5842e-015
rhumerus 10.4539 14.8693 -80.755
rradius 108.913
rwrist 26.5667
rhand 25.9451 5.913
rfingers 7.12502
rthumb 50.0274 -15.2953
lclavicle 5.76476e-015 2.5842e-015
lhumerus 27.949 -11.7099 83.807
lradius 108.642
lwrist -17.7021
lhand 21.3716 37.2343
lfingers 7.12502
lthumb 45.8106 60.4073
rfemur -53.6848 2.23425 19.7535
rtibia 35.1223
rfoot -15.6507 -3.42033
rtoes -24.3383
lfemur -58.5455 -5.43888 -8.6055
ltibia 42.5804
lfoot -16.2291 6.01419
ltoes -20.1674
464
root 0.373107 16.778 -1.61128 32.936 3.46287 -4.83823
lowerback 16.6337 -1.11226 -0.342821
upperback -1.89018 -1.10872 3.92302
thorax -11.3862 -0.344156 4.81413
lowerneck -7.95016 -8.73721 -17.697
upperneck -6.96972 -10.2087 29.414
head 2.21216 -4.8513 11.8992
rclavicle -2.22639e-014 2.28602e-015
rhumerus 10.2898 14.105 -80.9276
rradius 108.782
rwrist 26.9444
rhand 26.2484 5.98928
rfingers 7.12502
rthumb 50.3047 -15.072
lclavicle -2.22639e-014 2.28602e-015
lhumerus 29.2847 -12.6361 82.728
lradius 107.761
lwrist -17.2615
lhand 22.2215 37.2698
lfingers 7.12502
lthumb 46.5987 60.1108
rfemur -53.3606 2.09795 20.7638
rtibia 34.7211
rfoot -15.4458 -3.77111
rtoes -23.7044
lfemur -58.9537 -5.59663 -7.51425
ltibia 42.8627
lfoot -16.0662 5.64055
ltoes -20.4442
465
root 0.373098 16.7732 -1.62435 32.9841 4.66981 -5.45542
lowerback 16.5158 -1.39311 0.272585
upperback -1.96078 -1.28212 4.59082
thorax -11.3853 -0.438141 5.2499
lowerneck -7.22915 -8.81602 -17.2596
upperneck -7.19061 -10.4097 29.6998
head 2.07483 -5.02721 11.9259
rclavicle -1.88845e-015 -1.5704e-014
rhumerus 10.3899 13.2623 -81.1595
rradius 108.713
rwrist 27.4261
rhand 25.8514 5.42059
rfingers 7.12502
rthumb 49.9417 -15.8327
lclavicle -1.88845e-015 -1.5704e-014
lhumerus 30.4697 -13.5462 81.6501
lradius 106.955
lwrist -17.3086
lhand 23.958 37.5771
lfingers 7.12502
lthumb 48.2028 59.6948
rfemur -53.2581 1.94919 21.685
rtibia 34.4482
rfoot -15.2755 -4.27388
rtoes -24.1436
lfemur -59.5088 -5.7871 -6.4632
ltibia 43.1109
lfoot -15.9553 5.30781
ltoes -20.4097
